<?xml version="1.0" encoding="utf-8"?>
<!-- Generator: Adobe Illustrator 17.0.0, SVG Export Plug-In . SVG Version: 6.00 Build 0)  -->
<!DOCTYPE svg PUBLIC "-//W3C//DTD SVG 1.1//EN" "http://www.w3.org/Graphics/SVG/1.1/DTD/svg11.dtd">
<svg version="1.1" id="Layer_1" xmlns="http://www.w3.org/2000/svg" xmlns:xlink="http://www.w3.org/1999/xlink" x="0px" y="0px"
	 width="107px" height="43px" viewBox="0 0 107 43" enable-background="new 0 0 107 43" xml:space="preserve">
<g>
	<defs>
		<rect id="SVGID_1_" y="0.333" width="107" height="42.565"/>
	</defs>
	<clipPath id="SVGID_2_">
		<use xlink:href="#SVGID_1_"  overflow="visible"/>
	</clipPath>
	<path clip-path="url(#SVGID_2_)" fill="#F04E23" d="M101.889,42.899H5.111C2.3,42.899,0,40.599,0,37.788V5.445
		c0-2.811,2.3-5.111,5.111-5.111h96.778c2.811,0,5.111,2.3,5.111,5.111v32.343C107,40.599,104.7,42.899,101.889,42.899"/>
	<path clip-path="url(#SVGID_2_)" fill="#FFFFFF" d="M23.116,33.092c-6.358,0-11.511-5.154-11.511-11.511
		c0-6.358,5.154-11.512,11.511-11.512c3.692,0,6.975,1.74,9.081,4.441c-1.401,2.006-2.226,4.443-2.226,7.07s0.825,5.064,2.226,7.07
		C30.091,31.353,26.808,33.092,23.116,33.092"/>
	<path clip-path="url(#SVGID_2_)" fill="#FFFFFF" d="M42.349,33.092c-6.357,0-11.511-5.154-11.511-11.511
		c0-6.358,5.154-11.512,11.511-11.512c6.358,0,11.512,5.154,11.512,11.512C53.862,27.938,48.708,33.092,42.349,33.092"/>
	<path clip-path="url(#SVGID_2_)" fill="#FFFFFF" d="M61.583,33.164c-3.707,0-7.003-1.754-9.108-4.476
		c1.418-2.013,2.253-4.464,2.253-7.108c0-2.611-0.814-5.034-2.2-7.033c2.107-2.682,5.378-4.407,9.054-4.407
		c4.519,0,8.428,2.605,10.312,6.395c-1.483,1.211-2.43,3.054-2.43,5.117c0,2.064,0.947,3.906,2.43,5.117
		C70.011,30.558,66.102,33.164,61.583,33.164"/>
	<path clip-path="url(#SVGID_2_)" fill="#FFFFFF" d="M77.245,19.479c-0.594-0.64-1.346-0.96-2.256-0.96
		c-0.91,0-1.665,0.32-2.266,0.96c-0.576,0.616-0.864,1.368-0.864,2.256c0,0.889,0.288,1.641,0.864,2.256
		c0.6,0.64,1.356,0.96,2.266,0.96c0.91,0,1.662-0.32,2.256-0.96c0.57-0.615,0.855-1.368,0.855-2.256
		C78.1,20.846,77.815,20.094,77.245,19.479 M76.867,23.632c-0.483,0.549-1.108,0.823-1.879,0.823c-0.773,0-1.403-0.275-1.888-0.823
		c-0.455-0.519-0.682-1.151-0.682-1.897c0-0.746,0.227-1.377,0.682-1.892c0.485-0.552,1.115-0.828,1.888-0.828
		c0.77,0,1.396,0.275,1.879,0.828c0.449,0.515,0.673,1.146,0.673,1.892C77.54,22.481,77.316,23.113,76.867,23.632"/>
	<path clip-path="url(#SVGID_2_)" fill="#FFFFFF" d="M82.683,24.632c0,0.185-0.094,0.278-0.282,0.278
		c-0.185,0-0.278-0.093-0.278-0.278v-2.069c0-0.913-0.435-1.37-1.306-1.37c-0.403,0-0.735,0.135-0.996,0.405
		c-0.267,0.276-0.4,0.638-0.4,1.087v1.947c0,0.185-0.094,0.278-0.282,0.278c-0.185,0-0.278-0.093-0.278-0.278v-3.635
		c0-0.185,0.092-0.277,0.278-0.277c0.188,0,0.282,0.092,0.282,0.277v0.486c0.31-0.533,0.816-0.8,1.519-0.8
		c0.531,0,0.955,0.176,1.273,0.528c0.313,0.346,0.469,0.793,0.469,1.342V24.632z"/>
	<path clip-path="url(#SVGID_2_)" fill="#FFFFFF" d="M84.219,24.632c0,0.185-0.094,0.278-0.282,0.278
		c-0.185,0-0.277-0.093-0.277-0.278v-5.795c0-0.185,0.092-0.278,0.277-0.278c0.188,0,0.282,0.093,0.282,0.278V24.632z"/>
	<path clip-path="url(#SVGID_2_)" fill="#FFFFFF" d="M85.801,24.632c0,0.185-0.093,0.278-0.278,0.278
		c-0.188,0-0.282-0.093-0.282-0.278v-3.635c0-0.185,0.094-0.277,0.282-0.277c0.185,0,0.278,0.092,0.278,0.277V24.632z"/>
	<path clip-path="url(#SVGID_2_)" fill="#FFFFFF" d="M85.523,19.92c-0.237,0-0.355-0.118-0.355-0.355
		c0-0.237,0.118-0.355,0.355-0.355c0.236,0,0.355,0.118,0.355,0.355C85.878,19.801,85.759,19.92,85.523,19.92"/>
	<path clip-path="url(#SVGID_2_)" fill="#FFFFFF" d="M90.643,24.632c0,0.185-0.094,0.278-0.282,0.278
		c-0.185,0-0.277-0.093-0.277-0.278v-2.069c0-0.913-0.435-1.37-1.306-1.37c-0.403,0-0.735,0.135-0.996,0.405
		c-0.267,0.276-0.4,0.638-0.4,1.087v1.947c0,0.185-0.094,0.278-0.282,0.278c-0.185,0-0.278-0.093-0.278-0.278v-3.635
		c0-0.185,0.092-0.277,0.278-0.277c0.188,0,0.282,0.092,0.282,0.277v0.486c0.309-0.533,0.816-0.8,1.519-0.8
		c0.531,0,0.956,0.176,1.274,0.528c0.312,0.346,0.469,0.793,0.469,1.342V24.632z"/>
	<path clip-path="url(#SVGID_2_)" fill="#FFFFFF" d="M95.395,22.768c0-0.598-0.183-1.093-0.55-1.488
		c-0.367-0.397-0.835-0.596-1.406-0.596c-0.601,0-1.101,0.212-1.501,0.637c-0.385,0.412-0.577,0.911-0.577,1.497
		c0,0.588,0.189,1.084,0.568,1.487c0.401,0.431,0.922,0.646,1.565,0.646c0.728,0,1.281-0.261,1.661-0.783
		c0.037-0.057,0.055-0.114,0.055-0.168c0-0.158-0.077-0.236-0.232-0.236c-0.046,0-0.09,0.013-0.132,0.041
		c-0.027,0.018-0.055,0.046-0.082,0.082c-0.331,0.391-0.753,0.587-1.269,0.587c-0.464,0-0.843-0.151-1.137-0.455
		c-0.27-0.279-0.412-0.617-0.428-1.014h3.234C95.318,23.004,95.395,22.925,95.395,22.768 M91.947,22.535
		c0.039-0.391,0.193-0.717,0.464-0.978c0.282-0.273,0.624-0.409,1.028-0.409c0.392,0,0.722,0.134,0.992,0.4
		c0.264,0.261,0.414,0.59,0.45,0.987H91.947z"/>
	<path clip-path="url(#SVGID_2_)" fill="#08519F" d="M23.647,17.226c0.734,0,1.379,0.15,1.917,0.445
		c0.455,0.248,0.893,0.637,1.302,1.157c0.106,0.145,0.245,0.217,0.411,0.217c0.352,0,0.545-0.189,0.545-0.531
		c0-0.065-0.015-0.134-0.055-0.226l-0.094-0.141c-0.458-0.606-1.006-1.082-1.629-1.413c-0.709-0.383-1.516-0.577-2.397-0.577
		c-1.548,0-2.829,0.538-3.808,1.598c-0.947,1.019-1.427,2.306-1.427,3.825c0,1.52,0.48,2.807,1.427,3.825
		c0.979,1.06,2.26,1.598,3.808,1.598c0.881,0,1.688-0.194,2.396-0.576c0.623-0.332,1.171-0.805,1.634-1.414l0.099-0.159
		c0.03-0.073,0.045-0.143,0.045-0.208c0-0.342-0.193-0.53-0.545-0.53c-0.167,0-0.305,0.073-0.41,0.215
		c-0.409,0.522-0.848,0.912-1.304,1.159c-0.537,0.295-1.182,0.445-1.916,0.445c-1.239,0-2.252-0.442-3.013-1.314
		c-0.715-0.822-1.078-1.845-1.078-3.04c0-1.195,0.362-2.218,1.077-3.039C21.394,17.669,22.408,17.226,23.647,17.226"/>
	<path clip-path="url(#SVGID_2_)" fill="#F04E23" d="M46.924,16.151c-0.163,0-0.389,0.062-0.534,0.36l-4.13,8.818l-4.132-8.822
		c-0.151-0.295-0.377-0.357-0.54-0.357c-0.361,0-0.559,0.199-0.559,0.56v9.739c0,0.361,0.199,0.559,0.559,0.559
		c0.356,0,0.552-0.198,0.552-0.559v-7.459l3.578,7.681c0.104,0.221,0.291,0.337,0.541,0.337c0.245,0,0.429-0.116,0.534-0.338
		l3.586-7.682v7.461c0,0.361,0.193,0.559,0.544,0.559c0.361,0,0.56-0.198,0.56-0.559v-9.739
		C47.484,16.35,47.285,16.151,46.924,16.151"/>
	<path clip-path="url(#SVGID_2_)" fill="#51B748" d="M65.903,16.152c-0.361,0-0.56,0.198-0.56,0.559v8.16l-6.4-8.476
		c-0.118-0.161-0.271-0.243-0.454-0.243c-0.371,0-0.575,0.198-0.575,0.559v9.753c0,0.351,0.199,0.544,0.56,0.544
		c0.356,0,0.552-0.193,0.552-0.544v-8.161l6.416,8.464c0.123,0.16,0.272,0.241,0.445,0.241c0.366,0,0.567-0.193,0.567-0.544v-9.753
		C66.455,16.35,66.259,16.152,65.903,16.152"/>
</g>
</svg>
